<svg width="547" height="677" viewBox="0 0 547 677" fill="none" xmlns="http://www.w3.org/2000/svg">
<path d="M200.242 46.7155C199.533 51.5932 199.001 55.8501 198.203 60.0183C164.325 252.553 130.447 445.089 96.7468 637.624C94.7071 649.419 89.652 658.376 82.2912 665.116C73.5114 673.187 61.7162 677 49.7438 677H0.346191C4.86913 654.385 11.3431 622.902 15.0679 601.795C45.7529 429.125 76.1719 256.544 106.768 83.8745C110.493 62.7675 123.973 48.6666 144.371 46.9816C162.374 45.4739 180.643 46.6268 200.242 46.6268" fill="#042433"/>
<path d="M371.313 46.8045C370.958 50.4406 370.515 54.6088 369.894 58.2448C350.206 169.456 330.429 280.578 310.741 391.789C306.218 417.419 290.876 430.456 264.714 430.545C250.081 430.545 235.448 430.545 218.952 430.545C224.894 396.756 230.481 365.095 236.157 333.435C251.056 249.805 265.867 166.175 281.032 82.6332C285.2 59.3091 300.897 47.0705 324.576 46.7158C338.588 46.5384 352.601 46.7158 366.524 46.7158C368.032 46.7158 369.628 46.7158 371.136 46.7158H371.313V46.8045Z" fill="#042433"/>
<path d="M546.114 0.067627C537.423 56.3826 528.022 111.013 520.927 165.997C515.163 210.606 501.771 227.633 464.878 227.633C461.774 227.633 458.582 227.545 455.123 227.279C451.487 227.013 447.851 226.924 444.037 226.924C437.652 226.924 431.089 227.19 423.995 227.19C424.704 221.071 425.059 216.637 425.768 212.202C434.193 156.863 442.707 101.612 451.221 46.2725C455.921 15.8536 471.796 0.333682 498.756 0.067627C504.787 0.067627 510.817 0.067627 516.848 0.067627C526.426 0.067627 536.093 0.067627 546.025 0.067627H546.114Z" fill="#41A9D8"/>
</svg>
